<svg xmlns="http://www.w3.org/2000/svg" xmlns:xlink="http://www.w3.org/1999/xlink" width="500" zoomAndPan="magnify" viewBox="0 0 375 112.499997" height="150" preserveAspectRatio="xMidYMid meet" version="1.2"><defs><clipPath id="62c8497ff0"><path d="M 42.433594 16.8125 L 80.582031 16.8125 L 80.582031 35.738281 L 42.433594 35.738281 Z M 42.433594 16.8125 "/></clipPath><clipPath id="8757e33087"><path d="M 42.433594 74.351562 L 80.582031 74.351562 L 80.582031 93.425781 L 42.433594 93.425781 Z M 42.433594 74.351562 "/></clipPath><clipPath id="dbb72fdce2"><path d="M 42.273438 35.894531 L 80.582031 35.894531 L 80.582031 74.203125 L 42.273438 74.203125 Z M 42.273438 35.894531 "/></clipPath><clipPath id="0c1eecd1df"><path d="M 80.582031 55.050781 C 80.582031 44.472656 72.007812 35.894531 61.429688 35.894531 C 50.851562 35.894531 42.273438 44.472656 42.273438 55.050781 C 42.273438 65.628906 50.851562 74.203125 61.429688 74.203125 C 72.007812 74.203125 80.582031 65.628906 80.582031 55.050781 Z M 80.582031 55.050781 "/></clipPath><clipPath id="901a21a43e"><path d="M 6.324219 16.664062 L 44.632812 16.664062 L 44.632812 54.972656 L 6.324219 54.972656 Z M 6.324219 16.664062 "/></clipPath><clipPath id="61d59218e4"><path d="M 44.632812 35.816406 C 44.632812 25.238281 36.058594 16.664062 25.476562 16.664062 C 14.898438 16.664062 6.324219 25.238281 6.324219 35.816406 C 6.324219 46.394531 14.898438 54.972656 25.476562 54.972656 C 36.058594 54.972656 44.632812 46.394531 44.632812 35.816406 Z M 44.632812 35.816406 "/></clipPath><clipPath id="850a6cc806"><path d="M 6.324219 55.125 L 44.632812 55.125 L 44.632812 93.433594 L 6.324219 93.433594 Z M 6.324219 55.125 "/></clipPath><clipPath id="6ece03c0f6"><path d="M 44.632812 74.28125 C 44.632812 63.703125 36.058594 55.125 25.476562 55.125 C 14.898438 55.125 6.324219 63.703125 6.324219 74.28125 C 6.324219 84.859375 14.898438 93.433594 25.476562 93.433594 C 36.058594 93.433594 44.632812 84.859375 44.632812 74.28125 Z M 44.632812 74.28125 "/></clipPath></defs><g id="55c29e37ca"><g style="fill:#222222;fill-opacity:1;"><g transform="translate(80.592831, 79.485622)"><path style="stroke:none" d="M 28.6875 1.109375 C 25.25 1.109375 21.921875 0.707031 18.703125 -0.09375 C 15.492188 -0.894531 12.582031 -2.035156 9.96875 -3.515625 C 7.363281 -5.003906 5.25 -6.757812 3.625 -8.78125 C 3.226562 -9.28125 3.082031 -9.847656 3.1875 -10.484375 C 3.289062 -11.128906 3.632812 -11.753906 4.21875 -12.359375 L 12.875 -21.0625 C 13.34375 -21.5625 13.914062 -21.789062 14.59375 -21.75 C 15.28125 -21.707031 15.96875 -21.425781 16.65625 -20.90625 C 18.351562 -19.59375 20.164062 -18.46875 22.09375 -17.53125 C 24.03125 -16.601562 25.96875 -16.140625 27.90625 -16.140625 C 29.582031 -16.140625 30.796875 -16.328125 31.546875 -16.703125 C 32.296875 -17.085938 32.671875 -17.617188 32.671875 -18.296875 C 32.671875 -18.742188 32.550781 -19.140625 32.3125 -19.484375 C 32.070312 -19.828125 31.644531 -20.160156 31.03125 -20.484375 C 30.414062 -20.816406 29.523438 -21.1875 28.359375 -21.59375 C 27.191406 -22 25.664062 -22.476562 23.78125 -23.03125 C 20.519531 -23.96875 17.734375 -25 15.421875 -26.125 C 13.117188 -27.257812 11.238281 -28.546875 9.78125 -29.984375 C 8.320312 -31.429688 7.257812 -33.113281 6.59375 -35.03125 C 5.925781 -36.945312 5.59375 -39.164062 5.59375 -41.6875 C 5.59375 -45.59375 6.519531 -48.984375 8.375 -51.859375 C 10.238281 -54.734375 12.875 -56.957031 16.28125 -58.53125 C 19.695312 -60.101562 23.726562 -60.890625 28.375 -60.890625 C 30.707031 -60.890625 33.007812 -60.585938 35.28125 -59.984375 C 37.550781 -59.378906 39.65625 -58.554688 41.59375 -57.515625 C 43.539062 -56.484375 45.144531 -55.285156 46.40625 -53.921875 C 46.976562 -53.316406 47.273438 -52.617188 47.296875 -51.828125 C 47.328125 -51.046875 47.039062 -50.316406 46.4375 -49.640625 L 39.484375 -41.609375 C 38.640625 -40.628906 37.828125 -40.164062 37.046875 -40.21875 C 36.273438 -40.28125 35.421875 -40.582031 34.484375 -41.125 C 33.222656 -41.882812 31.972656 -42.5 30.734375 -42.96875 C 29.503906 -43.445312 28.414062 -43.6875 27.46875 -43.6875 C 26.132812 -43.6875 25.101562 -43.492188 24.375 -43.109375 C 23.65625 -42.734375 23.296875 -42.191406 23.296875 -41.484375 C 23.296875 -40.515625 24.175781 -39.660156 25.9375 -38.921875 C 27.695312 -38.191406 30.070312 -37.40625 33.0625 -36.5625 C 35.050781 -36.007812 36.953125 -35.40625 38.765625 -34.75 C 40.578125 -34.09375 42.25 -33.328125 43.78125 -32.453125 C 45.320312 -31.578125 46.660156 -30.519531 47.796875 -29.28125 C 48.941406 -28.050781 49.828125 -26.5625 50.453125 -24.8125 C 51.085938 -23.070312 51.40625 -21.007812 51.40625 -18.625 C 51.40625 -15.601562 50.828125 -12.867188 49.671875 -10.421875 C 48.515625 -7.984375 46.90625 -5.910156 44.84375 -4.203125 C 42.789062 -2.503906 40.382812 -1.191406 37.625 -0.265625 C 34.875 0.648438 31.894531 1.109375 28.6875 1.109375 Z M 28.6875 1.109375 "/></g></g><g style="fill:#222222;fill-opacity:1;"><g transform="translate(129.102859, 79.485622)"><path style="stroke:none" d="M 11.96875 -43.015625 C 10.363281 -43.015625 8.898438 -43.398438 7.578125 -44.171875 C 6.253906 -44.953125 5.195312 -46.003906 4.40625 -47.328125 C 3.625 -48.648438 3.234375 -50.128906 3.234375 -51.765625 C 3.234375 -53.359375 3.625 -54.816406 4.40625 -56.140625 C 5.195312 -57.472656 6.253906 -58.53125 7.578125 -59.3125 C 8.898438 -60.101562 10.363281 -60.5 11.96875 -60.5 C 13.59375 -60.5 15.066406 -60.097656 16.390625 -59.296875 C 17.710938 -58.492188 18.757812 -57.4375 19.53125 -56.125 C 20.3125 -54.8125 20.703125 -53.359375 20.703125 -51.765625 C 20.703125 -50.128906 20.3125 -48.648438 19.53125 -47.328125 C 18.757812 -46.003906 17.710938 -44.953125 16.390625 -44.171875 C 15.066406 -43.398438 13.59375 -43.015625 11.96875 -43.015625 Z M 18.453125 -40.3125 C 18.984375 -40.3125 19.382812 -40.164062 19.65625 -39.875 C 19.9375 -39.582031 20.078125 -39.1875 20.078125 -38.6875 L 20.078125 -1.609375 C 20.078125 -0.535156 19.535156 0 18.453125 0 L 5.515625 0 C 4.460938 0 3.9375 -0.535156 3.9375 -1.609375 L 3.9375 -38.6875 C 3.9375 -39.1875 4.070312 -39.582031 4.34375 -39.875 C 4.625 -40.164062 5.015625 -40.3125 5.515625 -40.3125 Z M 18.453125 -40.3125 "/></g></g><g style="fill:#222222;fill-opacity:1;"><g transform="translate(147.466715, 79.485622)"><path style="stroke:none" d="M 42.46875 -40.3125 C 42.988281 -40.3125 43.398438 -40.148438 43.703125 -39.828125 C 44.003906 -39.515625 44.15625 -39.097656 44.15625 -38.578125 L 44.15625 -2.125 C 44.15625 0.707031 43.660156 3.296875 42.671875 5.640625 C 41.691406 7.992188 40.3125 10.019531 38.53125 11.71875 C 36.75 13.425781 34.628906 14.757812 32.171875 15.71875 C 29.722656 16.675781 27.039062 17.195312 24.125 17.28125 C 22.289062 17.300781 20.414062 17.191406 18.5 16.953125 C 16.582031 16.722656 14.726562 16.34375 12.9375 15.8125 C 11.15625 15.289062 9.546875 14.613281 8.109375 13.78125 C 7.347656 13.300781 7.242188 12.429688 7.796875 11.171875 L 11.53125 2.515625 C 11.738281 2.015625 12.078125 1.738281 12.546875 1.6875 C 13.023438 1.632812 13.5 1.675781 13.96875 1.8125 C 14.570312 1.96875 15.363281 2.171875 16.34375 2.421875 C 17.332031 2.671875 18.414062 2.894531 19.59375 3.09375 C 20.78125 3.289062 21.988281 3.390625 23.21875 3.390625 C 24.84375 3.390625 26.113281 2.863281 27.03125 1.8125 C 27.957031 0.757812 28.472656 -0.617188 28.578125 -2.328125 L 28.609375 -2.90625 C 27.460938 -2.125 26.191406 -1.519531 24.796875 -1.09375 C 23.398438 -0.675781 21.929688 -0.46875 20.390625 -0.46875 C 17.734375 -0.46875 15.285156 -0.976562 13.046875 -2 C 10.804688 -3.03125 8.859375 -4.441406 7.203125 -6.234375 C 5.546875 -8.035156 4.257812 -10.109375 3.34375 -12.453125 C 2.425781 -14.804688 1.96875 -17.320312 1.96875 -20 C 1.96875 -23.113281 2.425781 -25.976562 3.34375 -28.59375 C 4.257812 -31.207031 5.546875 -33.472656 7.203125 -35.390625 C 8.859375 -37.304688 10.804688 -38.785156 13.046875 -39.828125 C 15.285156 -40.878906 17.734375 -41.40625 20.390625 -41.40625 C 22.648438 -41.40625 24.707031 -40.960938 26.5625 -40.078125 C 28.425781 -39.203125 30.039062 -37.925781 31.40625 -36.25 L 33.1875 -39.28125 C 33.394531 -39.570312 33.65625 -39.816406 33.96875 -40.015625 C 34.28125 -40.210938 34.617188 -40.3125 34.984375 -40.3125 Z M 18.265625 -20.75 C 18.265625 -19.382812 18.726562 -18.273438 19.65625 -17.421875 C 20.59375 -16.566406 21.882812 -16.140625 23.53125 -16.140625 C 25.21875 -16.140625 26.53125 -16.566406 27.46875 -17.421875 C 28.414062 -18.273438 28.890625 -19.382812 28.890625 -20.75 C 28.890625 -22.21875 28.414062 -23.398438 27.46875 -24.296875 C 26.53125 -25.203125 25.21875 -25.65625 23.53125 -25.65625 C 21.882812 -25.65625 20.59375 -25.203125 19.65625 -24.296875 C 18.726562 -23.398438 18.265625 -22.21875 18.265625 -20.75 Z M 18.265625 -20.75 "/></g></g><g style="fill:#222222;fill-opacity:1;"><g transform="translate(189.916025, 79.485622)"><path style="stroke:none" d="M 57.3125 -41.40625 C 60.507812 -41.40625 63.328125 -40.671875 65.765625 -39.203125 C 68.210938 -37.734375 70.125 -35.613281 71.5 -32.84375 C 72.875 -30.070312 73.5625 -26.722656 73.5625 -22.796875 L 73.5625 -1.6875 C 73.5625 -0.5625 73 0 71.875 0 L 59.078125 0 C 57.972656 0 57.421875 -0.5625 57.421875 -1.6875 L 57.421875 -21.8125 C 57.421875 -23.28125 56.96875 -24.476562 56.0625 -25.40625 C 55.15625 -26.332031 53.851562 -26.796875 52.15625 -26.796875 C 51.15625 -26.796875 50.253906 -26.566406 49.453125 -26.109375 C 48.648438 -25.648438 48.015625 -25.039062 47.546875 -24.28125 C 47.078125 -23.519531 46.84375 -22.707031 46.84375 -21.84375 L 46.84375 -1.6875 C 46.84375 -0.5625 46.273438 0 45.140625 0 L 32.359375 0 C 31.253906 0 30.703125 -0.5625 30.703125 -1.6875 L 30.703125 -21.8125 C 30.703125 -23.28125 30.25 -24.476562 29.34375 -25.40625 C 28.4375 -26.332031 27.128906 -26.796875 25.421875 -26.796875 C 24.429688 -26.796875 23.535156 -26.566406 22.734375 -26.109375 C 21.929688 -25.648438 21.289062 -25.039062 20.8125 -24.28125 C 20.34375 -23.519531 20.109375 -22.707031 20.109375 -21.84375 L 20.109375 -1.6875 C 20.109375 -0.5625 19.546875 0 18.421875 0 L 5.59375 0 C 4.488281 0 3.9375 -0.5625 3.9375 -1.6875 L 3.9375 -38.578125 C 3.9375 -39.097656 4.09375 -39.515625 4.40625 -39.828125 C 4.71875 -40.148438 5.125 -40.3125 5.625 -40.3125 L 13.109375 -40.3125 C 13.472656 -40.3125 13.8125 -40.210938 14.125 -40.015625 C 14.445312 -39.816406 14.710938 -39.570312 14.921875 -39.28125 L 17.875 -34.328125 C 18.707031 -35.691406 19.804688 -36.90625 21.171875 -37.96875 C 22.535156 -39.03125 24.035156 -39.867188 25.671875 -40.484375 C 27.316406 -41.097656 28.953125 -41.40625 30.578125 -41.40625 C 33.597656 -41.40625 36.285156 -40.75 38.640625 -39.4375 C 41.003906 -38.125 42.882812 -36.25 44.28125 -33.8125 C 45.0625 -35.25 46.15625 -36.539062 47.5625 -37.6875 C 48.96875 -38.832031 50.523438 -39.738281 52.234375 -40.40625 C 53.941406 -41.070312 55.632812 -41.40625 57.3125 -41.40625 Z M 57.3125 -41.40625 "/></g></g><g style="fill:#222222;fill-opacity:1;"><g transform="translate(261.370204, 79.485622)"><path style="stroke:none" d="M 42.46875 -40.3125 C 42.988281 -40.3125 43.398438 -40.148438 43.703125 -39.828125 C 44.003906 -39.515625 44.15625 -39.097656 44.15625 -38.578125 L 44.15625 -1.734375 C 44.15625 -1.234375 44.003906 -0.816406 43.703125 -0.484375 C 43.398438 -0.160156 42.988281 0 42.46875 0 L 34.984375 0 C 34.617188 0 34.28125 -0.0976562 33.96875 -0.296875 C 33.65625 -0.492188 33.394531 -0.734375 33.1875 -1.015625 L 31.40625 -3.96875 C 30.039062 -2.320312 28.425781 -1.0625 26.5625 -0.1875 C 24.707031 0.675781 22.648438 1.109375 20.390625 1.109375 C 17.734375 1.109375 15.285156 0.59375 13.046875 -0.4375 C 10.804688 -1.476562 8.859375 -2.941406 7.203125 -4.828125 C 5.546875 -6.722656 4.257812 -8.957031 3.34375 -11.53125 C 2.425781 -14.101562 1.96875 -16.925781 1.96875 -20 C 1.96875 -23.113281 2.425781 -25.976562 3.34375 -28.59375 C 4.257812 -31.207031 5.546875 -33.472656 7.203125 -35.390625 C 8.859375 -37.304688 10.804688 -38.785156 13.046875 -39.828125 C 15.285156 -40.878906 17.734375 -41.40625 20.390625 -41.40625 C 22.648438 -41.40625 24.707031 -40.960938 26.5625 -40.078125 C 28.425781 -39.203125 30.039062 -37.925781 31.40625 -36.25 L 33.1875 -39.28125 C 33.394531 -39.570312 33.65625 -39.816406 33.96875 -40.015625 C 34.28125 -40.210938 34.617188 -40.3125 34.984375 -40.3125 Z M 23.53125 -14.765625 C 24.425781 -14.765625 25.28125 -14.992188 26.09375 -15.453125 C 26.90625 -15.910156 27.570312 -16.535156 28.09375 -17.328125 C 28.625 -18.128906 28.890625 -19.046875 28.890625 -20.078125 C 28.890625 -21.117188 28.625 -22.046875 28.09375 -22.859375 C 27.570312 -23.679688 26.90625 -24.320312 26.09375 -24.78125 C 25.28125 -25.238281 24.425781 -25.46875 23.53125 -25.46875 C 22.664062 -25.46875 21.828125 -25.238281 21.015625 -24.78125 C 20.203125 -24.320312 19.539062 -23.679688 19.03125 -22.859375 C 18.519531 -22.046875 18.265625 -21.117188 18.265625 -20.078125 C 18.265625 -19.046875 18.519531 -18.128906 19.03125 -17.328125 C 19.539062 -16.535156 20.203125 -15.910156 21.015625 -15.453125 C 21.828125 -14.992188 22.664062 -14.765625 23.53125 -14.765625 Z M 23.53125 -14.765625 "/></g></g><g style="fill:#222222;fill-opacity:1;"><g transform="translate(303.819514, 79.485622)"><path style="stroke:none" d="M 65.0625 -29.828125 C 65.0625 -26.179688 64.492188 -22.742188 63.359375 -19.515625 C 62.234375 -16.296875 60.644531 -13.378906 58.59375 -10.765625 C 56.550781 -8.148438 54.140625 -5.914062 51.359375 -4.0625 C 48.578125 -2.21875 45.519531 -0.847656 42.1875 0.046875 L 42.1875 10.3125 C 42.1875 11.050781 41.984375 11.632812 41.578125 12.0625 C 41.171875 12.5 40.585938 12.71875 39.828125 12.71875 L 27.78125 12.71875 C 27.019531 12.71875 26.4375 12.5 26.03125 12.0625 C 25.625 11.632812 25.421875 11.050781 25.421875 10.3125 L 25.421875 0.046875 C 22.085938 -0.828125 19.023438 -2.1875 16.234375 -4.03125 C 13.441406 -5.882812 11.019531 -8.125 8.96875 -10.75 C 6.925781 -13.375 5.347656 -16.296875 4.234375 -19.515625 C 3.117188 -22.742188 2.5625 -26.179688 2.5625 -29.828125 C 2.5625 -33.316406 3.078125 -36.628906 4.109375 -39.765625 C 5.148438 -42.910156 6.613281 -45.765625 8.5 -48.328125 C 10.382812 -50.898438 12.625 -53.125 15.21875 -55 C 17.820312 -56.875 20.695312 -58.320312 23.84375 -59.34375 C 27 -60.375 30.320312 -60.890625 33.8125 -60.890625 C 37.300781 -60.890625 40.613281 -60.375 43.75 -59.34375 C 46.882812 -58.320312 49.75 -56.875 52.34375 -55 C 54.945312 -53.125 57.195312 -50.898438 59.09375 -48.328125 C 61 -45.765625 62.46875 -42.921875 63.5 -39.796875 C 64.539062 -36.671875 65.0625 -33.347656 65.0625 -29.828125 Z M 33.8125 -16.921875 C 35.675781 -16.921875 37.40625 -17.242188 39 -17.890625 C 40.601562 -18.535156 42 -19.441406 43.1875 -20.609375 C 44.382812 -21.773438 45.320312 -23.144531 46 -24.71875 C 46.6875 -26.289062 47.03125 -27.992188 47.03125 -29.828125 C 47.03125 -31.691406 46.6875 -33.410156 46 -34.984375 C 45.320312 -36.566406 44.378906 -37.953125 43.171875 -39.140625 C 41.972656 -40.335938 40.570312 -41.265625 38.96875 -41.921875 C 37.363281 -42.578125 35.644531 -42.90625 33.8125 -42.90625 C 31.976562 -42.90625 30.253906 -42.578125 28.640625 -41.921875 C 27.023438 -41.265625 25.617188 -40.335938 24.421875 -39.140625 C 23.222656 -37.953125 22.28125 -36.566406 21.59375 -34.984375 C 20.914062 -33.410156 20.578125 -31.691406 20.578125 -29.828125 C 20.578125 -27.992188 20.910156 -26.289062 21.578125 -24.71875 C 22.253906 -23.144531 23.195312 -21.773438 24.40625 -20.609375 C 25.613281 -19.441406 27.015625 -18.535156 28.609375 -17.890625 C 30.210938 -17.242188 31.945312 -16.921875 33.8125 -16.921875 Z M 33.8125 -16.921875 "/></g></g><g clip-rule="nonzero" clip-path="url(#62c8497ff0)"><path style=" stroke:none;fill-rule:nonzero;fill:#000000;fill-opacity:1;" d="M 42.449219 16.664062 L 42.449219 16.753906 C 42.449219 19.316406 42.953125 21.800781 43.949219 24.144531 C 44.90625 26.402344 46.28125 28.433594 48.03125 30.175781 C 49.78125 31.921875 51.820312 33.289062 54.089844 34.246094 C 56.441406 35.234375 58.933594 35.738281 61.507812 35.738281 C 64.082031 35.738281 66.578125 35.234375 68.925781 34.246094 C 71.195312 33.289062 73.234375 31.921875 74.984375 30.175781 C 76.734375 28.433594 78.109375 26.402344 79.070312 24.144531 C 80.0625 21.800781 80.566406 19.316406 80.566406 16.753906 L 80.566406 16.664062 Z M 42.449219 16.664062 "/></g><g clip-rule="nonzero" clip-path="url(#8757e33087)"><path style=" stroke:none;fill-rule:nonzero;fill:#000000;fill-opacity:1;" d="M 42.449219 93.425781 L 42.449219 93.335938 C 42.449219 90.773438 42.953125 88.289062 43.949219 85.949219 C 44.90625 83.6875 46.28125 81.65625 48.03125 79.914062 C 49.78125 78.171875 51.820312 76.800781 54.089844 75.84375 C 56.441406 74.855469 58.933594 74.351562 61.507812 74.351562 C 64.082031 74.351562 66.578125 74.855469 68.925781 75.84375 C 71.195312 76.800781 73.234375 78.171875 74.984375 79.914062 C 76.734375 81.65625 78.109375 83.6875 79.070312 85.949219 C 80.0625 88.289062 80.566406 90.773438 80.566406 93.335938 L 80.566406 93.425781 Z M 42.449219 93.425781 "/></g><g clip-rule="nonzero" clip-path="url(#dbb72fdce2)"><g clip-rule="nonzero" clip-path="url(#0c1eecd1df)"><path style=" stroke:none;fill-rule:nonzero;fill:#000000;fill-opacity:1;" d="M 80.582031 35.894531 L 80.582031 74.203125 L 42.273438 74.203125 L 42.273438 35.894531 Z M 80.582031 35.894531 "/></g></g><g clip-rule="nonzero" clip-path="url(#901a21a43e)"><g clip-rule="nonzero" clip-path="url(#61d59218e4)"><path style=" stroke:none;fill-rule:nonzero;fill:#000000;fill-opacity:1;" d="M 44.632812 16.664062 L 44.632812 54.972656 L 6.324219 54.972656 L 6.324219 16.664062 Z M 44.632812 16.664062 "/></g></g><g clip-rule="nonzero" clip-path="url(#850a6cc806)"><g clip-rule="nonzero" clip-path="url(#6ece03c0f6)"><path style=" stroke:none;fill-rule:nonzero;fill:#000000;fill-opacity:1;" d="M 44.632812 55.125 L 44.632812 93.433594 L 6.324219 93.433594 L 6.324219 55.125 Z M 44.632812 55.125 "/></g></g></g></svg>