<svg xmlns="http://www.w3.org/2000/svg" xmlns:xlink="http://www.w3.org/1999/xlink" width="520" zoomAndPan="magnify" viewBox="0 0 390 89.999999" height="120" preserveAspectRatio="xMidYMid meet" version="1.2"><defs><clipPath id="16b9ed9dc0"><path d="M 41 2.605469 L 79.617188 2.605469 L 79.617188 21.800781 L 41 21.800781 Z M 41 2.605469 "/></clipPath><clipPath id="4f9092d0a8"><path d="M 41 60.960938 L 79.617188 60.960938 L 79.617188 80.304688 L 41 80.304688 Z M 41 60.960938 "/></clipPath><clipPath id="b6fc4e1601"><path d="M 40.765625 21.960938 L 79.617188 21.960938 L 79.617188 60.808594 L 40.765625 60.808594 Z M 40.765625 21.960938 "/></clipPath><clipPath id="66174c813a"><path d="M 79.617188 41.382812 C 79.617188 30.65625 70.921875 21.960938 60.191406 21.960938 C 49.464844 21.960938 40.765625 30.65625 40.765625 41.382812 C 40.765625 52.113281 49.464844 60.808594 60.191406 60.808594 C 70.921875 60.808594 79.617188 52.113281 79.617188 41.382812 Z M 79.617188 41.382812 "/></clipPath><clipPath id="1fe74c760a"><path d="M 4.308594 2.457031 L 43.15625 2.457031 L 43.15625 41.304688 L 4.308594 41.304688 Z M 4.308594 2.457031 "/></clipPath><clipPath id="676c030da4"><path d="M 43.15625 21.878906 C 43.15625 11.152344 34.460938 2.457031 23.734375 2.457031 C 13.003906 2.457031 4.308594 11.152344 4.308594 21.878906 C 4.308594 32.609375 13.003906 41.304688 23.734375 41.304688 C 34.460938 41.304688 43.15625 32.609375 43.15625 21.878906 Z M 43.15625 21.878906 "/></clipPath><clipPath id="ec2e603108"><path d="M 4.308594 41.460938 L 43.15625 41.460938 L 43.15625 80.3125 L 4.308594 80.3125 Z M 4.308594 41.460938 "/></clipPath><clipPath id="75b997d7c7"><path d="M 43.15625 60.886719 C 43.15625 50.160156 34.460938 41.460938 23.734375 41.460938 C 13.003906 41.460938 4.308594 50.160156 4.308594 60.886719 C 4.308594 71.617188 13.003906 80.3125 23.734375 80.3125 C 34.460938 80.3125 43.15625 71.617188 43.15625 60.886719 Z M 43.15625 60.886719 "/></clipPath></defs><g id="c24ce66b1a"><g style="fill:#222222;fill-opacity:1;"><g transform="translate(85.893689, 70.561958)"><path style="stroke:none" d="M 29.09375 1.125 C 25.613281 1.125 22.242188 0.71875 18.984375 -0.09375 C 15.722656 -0.90625 12.765625 -2.0625 10.109375 -3.5625 C 7.460938 -5.070312 5.316406 -6.851562 3.671875 -8.90625 C 3.273438 -9.40625 3.128906 -9.976562 3.234375 -10.625 C 3.335938 -11.28125 3.679688 -11.914062 4.265625 -12.53125 L 13.046875 -21.359375 C 13.523438 -21.859375 14.109375 -22.085938 14.796875 -22.046875 C 15.492188 -22.015625 16.191406 -21.734375 16.890625 -21.203125 C 18.617188 -19.867188 20.457031 -18.726562 22.40625 -17.78125 C 24.363281 -16.832031 26.328125 -16.359375 28.296875 -16.359375 C 30.003906 -16.359375 31.234375 -16.550781 31.984375 -16.9375 C 32.742188 -17.332031 33.125 -17.875 33.125 -18.5625 C 33.125 -19.007812 33.003906 -19.40625 32.765625 -19.75 C 32.523438 -20.101562 32.09375 -20.445312 31.46875 -20.78125 C 30.84375 -21.113281 29.9375 -21.484375 28.75 -21.890625 C 27.570312 -22.304688 26.023438 -22.789062 24.109375 -23.34375 C 20.804688 -24.300781 17.984375 -25.351562 15.640625 -26.5 C 13.304688 -27.644531 11.398438 -28.945312 9.921875 -30.40625 C 8.441406 -31.875 7.363281 -33.578125 6.6875 -35.515625 C 6.007812 -37.460938 5.671875 -39.710938 5.671875 -42.265625 C 5.671875 -46.234375 6.613281 -49.675781 8.5 -52.59375 C 10.394531 -55.507812 13.070312 -57.765625 16.53125 -59.359375 C 19.988281 -60.953125 24.070312 -61.75 28.78125 -61.75 C 31.144531 -61.75 33.476562 -61.441406 35.78125 -60.828125 C 38.082031 -60.222656 40.21875 -59.394531 42.1875 -58.34375 C 44.15625 -57.289062 45.78125 -56.070312 47.0625 -54.6875 C 47.644531 -54.070312 47.945312 -53.363281 47.96875 -52.5625 C 48 -51.769531 47.710938 -51.023438 47.109375 -50.328125 L 40.03125 -42.1875 C 39.1875 -41.207031 38.367188 -40.742188 37.578125 -40.796875 C 36.796875 -40.847656 35.925781 -41.15625 34.96875 -41.71875 C 33.6875 -42.488281 32.421875 -43.113281 31.171875 -43.59375 C 29.921875 -44.070312 28.816406 -44.3125 27.859375 -44.3125 C 26.503906 -44.3125 25.457031 -44.117188 24.71875 -43.734375 C 23.988281 -43.347656 23.625 -42.796875 23.625 -42.078125 C 23.625 -41.085938 24.515625 -40.21875 26.296875 -39.46875 C 28.085938 -38.726562 30.5 -37.929688 33.53125 -37.078125 C 35.550781 -36.523438 37.476562 -35.914062 39.3125 -35.25 C 41.15625 -34.582031 42.851562 -33.800781 44.40625 -32.90625 C 45.96875 -32.019531 47.328125 -30.953125 48.484375 -29.703125 C 49.640625 -28.453125 50.535156 -26.941406 51.171875 -25.171875 C 51.804688 -23.398438 52.125 -21.300781 52.125 -18.875 C 52.125 -15.820312 51.539062 -13.054688 50.375 -10.578125 C 49.207031 -8.097656 47.578125 -5.992188 45.484375 -4.265625 C 43.398438 -2.535156 40.957031 -1.203125 38.15625 -0.265625 C 35.363281 0.660156 32.34375 1.125 29.09375 1.125 Z M 29.09375 1.125 "/></g></g><g style="fill:#222222;fill-opacity:1;"><g transform="translate(135.089882, 70.561958)"><path style="stroke:none" d="M 12.140625 -43.625 C 10.515625 -43.625 9.03125 -44.015625 7.6875 -44.796875 C 6.34375 -45.585938 5.269531 -46.65625 4.46875 -48 C 3.664062 -49.34375 3.265625 -50.835938 3.265625 -52.484375 C 3.265625 -54.109375 3.664062 -55.59375 4.46875 -56.9375 C 5.269531 -58.28125 6.34375 -59.351562 7.6875 -60.15625 C 9.03125 -60.957031 10.515625 -61.359375 12.140625 -61.359375 C 13.785156 -61.359375 15.28125 -60.953125 16.625 -60.140625 C 17.96875 -59.328125 19.03125 -58.253906 19.8125 -56.921875 C 20.601562 -55.585938 21 -54.109375 21 -52.484375 C 21 -50.835938 20.601562 -49.34375 19.8125 -48 C 19.03125 -46.65625 17.96875 -45.585938 16.625 -44.796875 C 15.28125 -44.015625 13.785156 -43.625 12.140625 -43.625 Z M 18.71875 -40.875 C 19.25 -40.875 19.65625 -40.726562 19.9375 -40.4375 C 20.21875 -40.144531 20.359375 -39.742188 20.359375 -39.234375 L 20.359375 -1.640625 C 20.359375 -0.546875 19.8125 0 18.71875 0 L 5.59375 0 C 4.519531 0 3.984375 -0.546875 3.984375 -1.640625 L 3.984375 -39.234375 C 3.984375 -39.742188 4.125 -40.144531 4.40625 -40.4375 C 4.6875 -40.726562 5.082031 -40.875 5.59375 -40.875 Z M 18.71875 -40.875 "/></g></g><g style="fill:#222222;fill-opacity:1;"><g transform="translate(153.713492, 70.561958)"><path style="stroke:none" d="M 43.078125 -40.875 C 43.609375 -40.875 44.023438 -40.710938 44.328125 -40.390625 C 44.628906 -40.078125 44.78125 -39.65625 44.78125 -39.125 L 44.78125 -2.15625 C 44.78125 0.71875 44.28125 3.34375 43.28125 5.71875 C 42.289062 8.101562 40.890625 10.160156 39.078125 11.890625 C 37.265625 13.617188 35.113281 14.96875 32.625 15.9375 C 30.144531 16.914062 27.425781 17.445312 24.46875 17.53125 C 22.601562 17.550781 20.695312 17.441406 18.75 17.203125 C 16.8125 16.960938 14.9375 16.578125 13.125 16.046875 C 11.320312 15.515625 9.6875 14.820312 8.21875 13.96875 C 7.445312 13.488281 7.34375 12.613281 7.90625 11.34375 L 11.703125 2.5625 C 11.910156 2.050781 12.253906 1.769531 12.734375 1.71875 C 13.210938 1.664062 13.691406 1.707031 14.171875 1.84375 C 14.785156 2 15.585938 2.203125 16.578125 2.453125 C 17.578125 2.703125 18.675781 2.925781 19.875 3.125 C 21.070312 3.332031 22.296875 3.4375 23.546875 3.4375 C 25.203125 3.4375 26.492188 2.898438 27.421875 1.828125 C 28.347656 0.765625 28.867188 -0.628906 28.984375 -2.359375 L 29.015625 -2.953125 C 27.847656 -2.148438 26.554688 -1.535156 25.140625 -1.109375 C 23.734375 -0.691406 22.242188 -0.484375 20.671875 -0.484375 C 17.984375 -0.484375 15.5 -1 13.21875 -2.03125 C 10.945312 -3.070312 8.972656 -4.503906 7.296875 -6.328125 C 5.628906 -8.148438 4.328125 -10.25 3.390625 -12.625 C 2.460938 -15.007812 2 -17.5625 2 -20.28125 C 2 -23.445312 2.460938 -26.351562 3.390625 -29 C 4.328125 -31.644531 5.628906 -33.9375 7.296875 -35.875 C 8.972656 -37.820312 10.945312 -39.328125 13.21875 -40.390625 C 15.5 -41.460938 17.984375 -42 20.671875 -42 C 22.960938 -42 25.050781 -41.550781 26.9375 -40.65625 C 28.832031 -39.757812 30.472656 -38.460938 31.859375 -36.765625 L 33.65625 -39.84375 C 33.863281 -40.132812 34.125 -40.378906 34.4375 -40.578125 C 34.757812 -40.773438 35.109375 -40.875 35.484375 -40.875 Z M 18.515625 -21.03125 C 18.515625 -19.644531 18.988281 -18.519531 19.9375 -17.65625 C 20.882812 -16.789062 22.195312 -16.359375 23.875 -16.359375 C 25.570312 -16.359375 26.898438 -16.789062 27.859375 -17.65625 C 28.816406 -18.519531 29.296875 -19.644531 29.296875 -21.03125 C 29.296875 -22.519531 28.816406 -23.722656 27.859375 -24.640625 C 26.898438 -25.566406 25.570312 -26.03125 23.875 -26.03125 C 22.195312 -26.03125 20.882812 -25.566406 19.9375 -24.640625 C 18.988281 -23.722656 18.515625 -22.519531 18.515625 -21.03125 Z M 18.515625 -21.03125 "/></g></g><g style="fill:#222222;fill-opacity:1;"><g transform="translate(196.763239, 70.561958)"><path style="stroke:none" d="M 58.125 -42 C 61.363281 -42 64.21875 -41.25 66.6875 -39.75 C 69.164062 -38.257812 71.101562 -36.109375 72.5 -33.296875 C 73.90625 -30.492188 74.609375 -27.097656 74.609375 -23.109375 L 74.609375 -1.71875 C 74.609375 -0.570312 74.035156 0 72.890625 0 L 59.921875 0 C 58.796875 0 58.234375 -0.570312 58.234375 -1.71875 L 58.234375 -22.109375 C 58.234375 -23.597656 57.773438 -24.816406 56.859375 -25.765625 C 55.941406 -26.710938 54.617188 -27.1875 52.890625 -27.1875 C 51.878906 -27.1875 50.96875 -26.953125 50.15625 -26.484375 C 49.34375 -26.015625 48.695312 -25.394531 48.21875 -24.625 C 47.738281 -23.851562 47.5 -23.03125 47.5 -22.15625 L 47.5 -1.71875 C 47.5 -0.570312 46.925781 0 45.78125 0 L 32.8125 0 C 31.695312 0 31.140625 -0.570312 31.140625 -1.71875 L 31.140625 -22.109375 C 31.140625 -23.597656 30.675781 -24.816406 29.75 -25.765625 C 28.832031 -26.710938 27.507812 -27.1875 25.78125 -27.1875 C 24.769531 -27.1875 23.859375 -26.953125 23.046875 -26.484375 C 22.234375 -26.015625 21.585938 -25.394531 21.109375 -24.625 C 20.628906 -23.851562 20.390625 -23.03125 20.390625 -22.15625 L 20.390625 -1.71875 C 20.390625 -0.570312 19.820312 0 18.6875 0 L 5.671875 0 C 4.546875 0 3.984375 -0.570312 3.984375 -1.71875 L 3.984375 -39.125 C 3.984375 -39.65625 4.144531 -40.078125 4.46875 -40.390625 C 4.789062 -40.710938 5.203125 -40.875 5.703125 -40.875 L 13.296875 -40.875 C 13.660156 -40.875 14.003906 -40.773438 14.328125 -40.578125 C 14.648438 -40.378906 14.914062 -40.132812 15.125 -39.84375 L 18.125 -34.8125 C 18.976562 -36.195312 20.09375 -37.425781 21.46875 -38.5 C 22.851562 -39.570312 24.378906 -40.421875 26.046875 -41.046875 C 27.710938 -41.679688 29.367188 -42 31.015625 -42 C 34.078125 -42 36.804688 -41.332031 39.203125 -40 C 41.597656 -38.664062 43.5 -36.757812 44.90625 -34.28125 C 45.707031 -35.75 46.816406 -37.0625 48.234375 -38.21875 C 49.660156 -39.375 51.238281 -40.289062 52.96875 -40.96875 C 54.695312 -41.65625 56.414062 -42 58.125 -42 Z M 58.125 -42 "/></g></g><g style="fill:#222222;fill-opacity:1;"><g transform="translate(269.228124, 70.561958)"><path style="stroke:none" d="M 43.078125 -40.875 C 43.609375 -40.875 44.023438 -40.710938 44.328125 -40.390625 C 44.628906 -40.078125 44.78125 -39.65625 44.78125 -39.125 L 44.78125 -1.75 C 44.78125 -1.25 44.628906 -0.832031 44.328125 -0.5 C 44.023438 -0.164062 43.609375 0 43.078125 0 L 35.484375 0 C 35.109375 0 34.757812 -0.0976562 34.4375 -0.296875 C 34.125 -0.492188 33.863281 -0.738281 33.65625 -1.03125 L 31.859375 -4.03125 C 30.472656 -2.351562 28.832031 -1.070312 26.9375 -0.1875 C 25.050781 0.6875 22.960938 1.125 20.671875 1.125 C 17.984375 1.125 15.5 0.597656 13.21875 -0.453125 C 10.945312 -1.503906 8.972656 -2.988281 7.296875 -4.90625 C 5.628906 -6.820312 4.328125 -9.082031 3.390625 -11.6875 C 2.460938 -14.300781 2 -17.164062 2 -20.28125 C 2 -23.445312 2.460938 -26.351562 3.390625 -29 C 4.328125 -31.644531 5.628906 -33.9375 7.296875 -35.875 C 8.972656 -37.820312 10.945312 -39.328125 13.21875 -40.390625 C 15.5 -41.460938 17.984375 -42 20.671875 -42 C 22.960938 -42 25.050781 -41.550781 26.9375 -40.65625 C 28.832031 -39.757812 30.472656 -38.460938 31.859375 -36.765625 L 33.65625 -39.84375 C 33.863281 -40.132812 34.125 -40.378906 34.4375 -40.578125 C 34.757812 -40.773438 35.109375 -40.875 35.484375 -40.875 Z M 23.875 -14.96875 C 24.78125 -14.96875 25.644531 -15.195312 26.46875 -15.65625 C 27.289062 -16.125 27.96875 -16.765625 28.5 -17.578125 C 29.03125 -18.390625 29.296875 -19.316406 29.296875 -20.359375 C 29.296875 -21.421875 29.03125 -22.363281 28.5 -23.1875 C 27.96875 -24.007812 27.289062 -24.65625 26.46875 -25.125 C 25.644531 -25.59375 24.78125 -25.828125 23.875 -25.828125 C 22.988281 -25.828125 22.132812 -25.59375 21.3125 -25.125 C 20.488281 -24.65625 19.816406 -24.007812 19.296875 -23.1875 C 18.773438 -22.363281 18.515625 -21.421875 18.515625 -20.359375 C 18.515625 -19.316406 18.773438 -18.390625 19.296875 -17.578125 C 19.816406 -16.765625 20.488281 -16.125 21.3125 -15.65625 C 22.132812 -15.195312 22.988281 -14.96875 23.875 -14.96875 Z M 23.875 -14.96875 "/></g></g><g clip-rule="nonzero" clip-path="url(#16b9ed9dc0)"><path style=" stroke:none;fill-rule:nonzero;fill:#222222;fill-opacity:1;" d="M 41.09375 2.457031 L 41.09375 2.546875 C 41.09375 5.144531 41.605469 7.667969 42.609375 10.039062 C 43.578125 12.332031 44.964844 14.390625 46.734375 16.160156 C 48.5 17.929688 50.5625 19.316406 52.851562 20.285156 C 55.226562 21.289062 57.75 21.800781 60.347656 21.800781 C 62.945312 21.800781 65.46875 21.289062 67.839844 20.285156 C 70.132812 19.316406 72.191406 17.929688 73.960938 16.160156 C 75.730469 14.390625 77.117188 12.332031 78.085938 10.039062 C 79.089844 7.667969 79.601562 5.144531 79.601562 2.546875 L 79.601562 2.457031 Z M 41.09375 2.457031 "/></g><g clip-rule="nonzero" clip-path="url(#4f9092d0a8)"><path style=" stroke:none;fill-rule:nonzero;fill:#222222;fill-opacity:1;" d="M 41.09375 80.304688 L 41.09375 80.214844 C 41.09375 77.613281 41.605469 75.09375 42.609375 72.71875 C 43.578125 70.425781 44.964844 68.367188 46.734375 66.601562 C 48.5 64.832031 50.5625 63.445312 52.851562 62.472656 C 55.226562 61.46875 57.75 60.960938 60.347656 60.960938 C 62.945312 60.960938 65.46875 61.46875 67.839844 62.472656 C 70.132812 63.445312 72.191406 64.832031 73.960938 66.601562 C 75.730469 68.367188 77.117188 70.425781 78.085938 72.71875 C 79.089844 75.09375 79.601562 77.613281 79.601562 80.214844 L 79.601562 80.304688 Z M 41.09375 80.304688 "/></g><g clip-rule="nonzero" clip-path="url(#b6fc4e1601)"><g clip-rule="nonzero" clip-path="url(#66174c813a)"><path style=" stroke:none;fill-rule:nonzero;fill:#222222;fill-opacity:1;" d="M 79.617188 21.960938 L 79.617188 60.808594 L 40.765625 60.808594 L 40.765625 21.960938 Z M 79.617188 21.960938 "/></g></g><g clip-rule="nonzero" clip-path="url(#1fe74c760a)"><g clip-rule="nonzero" clip-path="url(#676c030da4)"><path style=" stroke:none;fill-rule:nonzero;fill:#222222;fill-opacity:1;" d="M 43.15625 2.457031 L 43.15625 41.304688 L 4.308594 41.304688 L 4.308594 2.457031 Z M 43.15625 2.457031 "/></g></g><g clip-rule="nonzero" clip-path="url(#ec2e603108)"><g clip-rule="nonzero" clip-path="url(#75b997d7c7)"><path style=" stroke:none;fill-rule:nonzero;fill:#222222;fill-opacity:1;" d="M 43.15625 41.460938 L 43.15625 80.3125 L 4.308594 80.3125 L 4.308594 41.460938 Z M 43.15625 41.460938 "/></g></g><g style="fill:#222222;fill-opacity:1;"><g transform="translate(309.181217, 71.832586)"><path style="stroke:none" d="M 76.578125 -35.109375 C 76.578125 -30.816406 75.910156 -26.769531 74.578125 -22.96875 C 73.253906 -19.175781 71.382812 -15.742188 68.96875 -12.671875 C 66.5625 -9.597656 63.722656 -6.972656 60.453125 -4.796875 C 57.179688 -2.617188 53.582031 -1.003906 49.65625 0.046875 L 49.65625 12.140625 C 49.65625 13.003906 49.414062 13.691406 48.9375 14.203125 C 48.457031 14.710938 47.769531 14.96875 46.875 14.96875 L 32.703125 14.96875 C 31.804688 14.96875 31.117188 14.710938 30.640625 14.203125 C 30.160156 13.691406 29.921875 13.003906 29.921875 12.140625 L 29.921875 0.046875 C 26.003906 -0.972656 22.398438 -2.570312 19.109375 -4.75 C 15.816406 -6.925781 12.96875 -9.554688 10.5625 -12.640625 C 8.15625 -15.734375 6.296875 -19.175781 4.984375 -22.96875 C 3.671875 -26.769531 3.015625 -30.816406 3.015625 -35.109375 C 3.015625 -39.222656 3.625 -43.125 4.84375 -46.8125 C 6.0625 -50.5 7.78125 -53.851562 10 -56.875 C 12.226562 -59.90625 14.867188 -62.523438 17.921875 -64.734375 C 20.984375 -66.941406 24.363281 -68.648438 28.0625 -69.859375 C 31.769531 -71.066406 35.679688 -71.671875 39.796875 -71.671875 C 43.898438 -71.671875 47.796875 -71.066406 51.484375 -69.859375 C 55.179688 -68.648438 58.554688 -66.941406 61.609375 -64.734375 C 64.671875 -62.523438 67.320312 -59.90625 69.5625 -56.875 C 71.800781 -53.851562 73.53125 -50.503906 74.75 -46.828125 C 75.96875 -43.160156 76.578125 -39.253906 76.578125 -35.109375 Z M 39.796875 -19.921875 C 41.984375 -19.921875 44.019531 -20.296875 45.90625 -21.046875 C 47.789062 -21.804688 49.4375 -22.875 50.84375 -24.25 C 52.25 -25.625 53.351562 -27.238281 54.15625 -29.09375 C 54.957031 -30.945312 55.359375 -32.953125 55.359375 -35.109375 C 55.359375 -37.304688 54.957031 -39.332031 54.15625 -41.1875 C 53.351562 -43.039062 52.238281 -44.664062 50.8125 -46.0625 C 49.394531 -47.46875 47.742188 -48.554688 45.859375 -49.328125 C 43.972656 -50.109375 41.953125 -50.5 39.796875 -50.5 C 37.628906 -50.5 35.597656 -50.109375 33.703125 -49.328125 C 31.804688 -48.554688 30.15625 -47.46875 28.75 -46.0625 C 27.34375 -44.664062 26.238281 -43.039062 25.4375 -41.1875 C 24.632812 -39.332031 24.234375 -37.304688 24.234375 -35.109375 C 24.234375 -32.953125 24.625 -30.945312 25.40625 -29.09375 C 26.195312 -27.238281 27.300781 -25.625 28.71875 -24.25 C 30.144531 -22.875 31.796875 -21.804688 33.671875 -21.046875 C 35.554688 -20.296875 37.597656 -19.921875 39.796875 -19.921875 Z M 39.796875 -19.921875 "/></g></g></g></svg>